<svg width="220" height="320" viewBox="0 0 220 320" fill="none" xmlns="http://www.w3.org/2000/svg">
  <ellipse cx="76" cy="52" rx="20" ry="46" transform="rotate(-20 76 52)" fill="#F8F3EB"/>
  <ellipse cx="145" cy="52" rx="20" ry="46" transform="rotate(20 145 52)" fill="#F8F3EB"/>
  <ellipse cx="76" cy="56" rx="10" ry="34" transform="rotate(-20 76 56)" fill="#FF8A5C"/>
  <ellipse cx="145" cy="56" rx="10" ry="34" transform="rotate(20 145 56)" fill="#FF8A5C"/>
  <circle cx="110" cy="104" r="46" fill="#F8F3EB"/>
  <ellipse cx="110" cy="198" rx="56" ry="74" fill="#F8F3EB"/>
  <rect x="58" y="142" width="104" height="78" rx="20" fill="#0E8ED8"/>
  <path d="M110 145L136 160V218H84V160L110 145Z" fill="#B3362D"/>
  <circle cx="110" cy="102" r="8" fill="#FF8A5C"/>
  <circle cx="93" cy="100" r="5" fill="#15364A"/>
  <circle cx="127" cy="100" r="5" fill="#15364A"/>
  <path d="M93 121C103 132 117 132 127 121" stroke="#8C2D1A" stroke-width="5" stroke-linecap="round"/>
  <ellipse cx="62" cy="184" rx="18" ry="10" transform="rotate(-25 62 184)" fill="#F8F3EB"/>
  <ellipse cx="158" cy="184" rx="18" ry="10" transform="rotate(25 158 184)" fill="#F8F3EB"/>
  <ellipse cx="90" cy="280" rx="20" ry="14" fill="#F8F3EB"/>
  <ellipse cx="130" cy="280" rx="20" ry="14" fill="#F8F3EB"/>
</svg>
