<svg width="1200" height="120" viewBox="0 0 1200 120" fill="none" xmlns="http://www.w3.org/2000/svg" preserveAspectRatio="none">
  <path d="M0 0H1200V56C1132 56 1118 80 1041 84C965 88 924 64 848 62C777 60 758 98 686 98C617 98 594 64 525 64C463 64 447 86 388 86C324 86 289 60 226 61C164 62 142 84 80 84C45 84 25 74 0 66V0Z" fill="#7B3F1A"/>
  <path d="M0 0H1200V42C1132 42 1118 66 1041 70C965 74 924 50 848 48C777 46 758 84 686 84C617 84 594 50 525 50C463 50 447 72 388 72C324 72 289 46 226 47C164 48 142 70 80 70C45 70 25 60 0 52V0Z" fill="#9C5327" opacity="0.7"/>
</svg>
